<?xml version="1.0" encoding="UTF-8"?><svg xmlns="http://www.w3.org/2000/svg" width="274.918" height="79.355" viewBox="0 0 274.918 79.355">
  <g id="Group_936" data-name="Group 936" transform="translate(-154.629 -665.28)">
    <path id="Path_330" data-name="Path 330" d="M240.714,725.948l-1.014,2.365h2.036Zm3.1,4.714h-1.1l-.6-1.428h-2.8l-.609,1.428h-1.064l2.6-5.956h.963Z" fill="#231f20"/>
    <path id="Path_331" data-name="Path 331" d="M250.906,728.8a2.032,2.032,0,0,1-1.484.664,1.659,1.659,0,0,1-1.622-1.763v-.017a1.651,1.651,0,0,1,1.622-1.747,2.078,2.078,0,0,1,1.443.639l.044.04.886-1.021-.039-.038a3.073,3.073,0,0,0-2.326-.911,3,3,0,0,0-3.08,3.055v.017a2.968,2.968,0,0,0,3.031,3.038,3.007,3.007,0,0,0,2.419-1.053l.038-.041-.891-.9Z" fill="#231f20"/>
    <path id="Path_332" data-name="Path 332" d="M254.4,726.017H255.6c.609,0,.944.274.944.77v.017c0,.47-.352.761-.919.761H254.4Zm3.56.721v-.017c0-1.234-.839-1.97-2.244-1.97H253v5.911H254.4v-1.855h.912l1.225,1.829.017.026h1.632l-1.436-2.1a1.856,1.856,0,0,0,1.21-1.824" fill="#231f20"/>
    <path id="Path_333" data-name="Path 333" d="M262.9,724.75v2.294h-2.234V724.75h-1.392v5.911h1.392v-2.326H262.9v2.326h1.391V724.75Z" fill="#231f20"/>
    <path id="Path_334" data-name="Path 334" d="M270.418,730.763a3.058,3.058,0,0,1,.042-6.116,3.082,3.082,0,0,1,2.315.921l-.667.768a2.354,2.354,0,0,0-1.656-.734,2.109,2.109,0,0,0,0,4.207,2.32,2.32,0,0,0,1.7-.769l.667.675a3.048,3.048,0,0,1-2.4,1.048" fill="#231f20"/>
    <path id="Path_335" data-name="Path 335" d="M276.731,725.6a2,2,0,0,0-1.994,2.1,2.028,2.028,0,0,0,2.011,2.112,2,2,0,0,0,1.993-2.1,2.028,2.028,0,0,0-2.01-2.112m0,5.161a3.058,3.058,0,1,1,3.1-3.066,3,3,0,0,1-3.1,3.066" fill="#231f20"/>
    <path id="Path_336" data-name="Path 336" d="M284,729.209h-.034l-1.85-2.771v4.224h-1.022v-5.914H282.2l1.8,2.8,1.8-2.8H286.9v5.914h-1.039v-4.241Z" fill="#231f20"/>
    <path id="Path_337" data-name="Path 337" d="M290.674,725.7h-1.208v2.129h1.208c.785,0,1.275-.432,1.275-1.065,0-.7-.5-1.064-1.275-1.064m-.034,3.066h-1.174v1.9h-1.039v-5.914h2.331a1.987,1.987,0,0,1,2.247,1.986,2.087,2.087,0,0,1-2.365,2.027" fill="#231f20"/>
    <path id="Path_338" data-name="Path 338" d="M296,725.948l-1.014,2.365h2.036Zm3.1,4.714H298l-.6-1.428h-2.8l-.608,1.428H292.93l2.6-5.956h.963Z" fill="#231f20"/>
    <path id="Path_339" data-name="Path 339" d="M304.244,724.748h1.022v5.914h-.87l-3.261-4.207v4.207h-1.022v-5.914h.963l3.168,4.089Z" fill="#231f20"/>
    <path id="Path_340" data-name="Path 340" d="M309.576,730.662h-1.047V728.33l-2.349-3.582h1.225l1.656,2.619,1.672-2.619h1.191l-2.348,3.557Z" fill="#231f20"/>
    <path id="Path_341" data-name="Path 341" d="M241.141,694.993c0,1.886,1.468,2.621,3.136,2.621,1.092,0,2.758-.317,2.758-1.767,0-1.528-2.123-1.786-4.207-2.342-2.1-.556-4.227-1.369-4.227-4.029,0-2.9,2.738-4.286,5.3-4.286,2.958,0,5.677,1.289,5.677,4.564h-3.017c-.1-1.706-1.31-2.143-2.8-2.143-.992,0-2.144.417-2.144,1.607,0,1.092.675,1.231,4.228,2.143,1.032.257,4.207.913,4.207,4.129,0,2.6-2.044,4.545-5.9,4.545-3.135,0-6.072-1.548-6.032-5.042Z" fill="#231f20"/>
    <path id="Path_342" data-name="Path 342" d="M255.033,688.146h-4.248v-2.619H262.4v2.619h-4.247V699.7h-3.116Z" fill="#231f20"/>
    <path id="Path_343" data-name="Path 343" d="M266.126,694.219H269.8l-1.786-5.2h-.04Zm.3-8.692h3.2l5.3,14.171h-3.235l-1.072-3.156h-5.3L264.2,699.7h-3.156Z" fill="#231f20"/>
    <path id="Path_344" data-name="Path 344" d="M276.149,685.527h3.116V691.4l5.537-5.874h3.89l-5.537,5.6,6.074,8.574h-3.911l-4.267-6.372-1.786,1.806V699.7h-3.116Z" fill="#231f20"/>
    <path id="Path_345" data-name="Path 345" d="M290.476,685.527h10.6v2.619h-7.482v3.037h6.867V693.6h-6.867v3.473h7.641V699.7H290.476Z" fill="#231f20"/>
    <path id="Path_346" data-name="Path 346" d="M306.452,691.937h3.413c1.39,0,2.144-.6,2.144-2.024,0-1.37-.754-1.965-2.144-1.965h-3.413Zm-3.116-6.41h7.641a3.893,3.893,0,0,1,4.148,3.909,3.486,3.486,0,0,1-2.242,3.553v.04c1.528.4,1.964,1.885,2.063,3.315.06.893.04,2.56.6,3.354h-3.116a15.575,15.575,0,0,1-.5-3.394c-.219-1.489-.794-2.144-2.362-2.144h-3.116V699.7h-3.116Z" fill="#231f20"/>
    <path id="Path_347" data-name="Path 347" d="M326.3,692.2h2.421c1.449,0,2.739-.318,2.739-2.125s-1.29-2.123-2.739-2.123H326.3Zm-3.116-6.669h6.391c3.532,0,4.9,2.243,4.9,4.544s-1.37,4.546-4.9,4.546H326.3V699.7h-3.116Z" fill="#231f20"/>
    <path id="Path_348" data-name="Path 348" d="M338.521,694.219h3.673l-1.786-5.2h-.04Zm.3-8.692h3.2l5.3,14.171h-3.235l-1.072-3.156h-5.3L336.6,699.7H333.44Z" fill="#231f20"/>
    <path id="Path_349" data-name="Path 349" d="M351.659,691.937h3.413c1.39,0,2.144-.6,2.144-2.024,0-1.37-.754-1.965-2.144-1.965h-3.413Zm-3.116-6.41h7.641a3.893,3.893,0,0,1,4.148,3.909,3.487,3.487,0,0,1-2.242,3.553v.04c1.528.4,1.964,1.885,2.063,3.315.06.893.04,2.56.6,3.354h-3.116a15.575,15.575,0,0,1-.5-3.394c-.219-1.489-.794-2.144-2.362-2.144h-3.116V699.7h-3.116Z" fill="#231f20"/>
    <path id="Path_350" data-name="Path 350" d="M364.995,694.993c0,1.886,1.467,2.621,3.135,2.621,1.093,0,2.758-.317,2.758-1.767,0-1.528-2.122-1.786-4.207-2.342-2.1-.556-4.227-1.369-4.227-4.029,0-2.9,2.739-4.286,5.3-4.286,2.957,0,5.677,1.289,5.677,4.564h-3.017c-.1-1.706-1.311-2.143-2.8-2.143-.993,0-2.144.417-2.144,1.607,0,1.092.674,1.231,4.227,2.143,1.032.257,4.207.913,4.207,4.129,0,2.6-2.044,4.545-5.893,4.545-3.137,0-6.074-1.548-6.035-5.042Z" fill="#231f20"/>
    <path id="Path_351" data-name="Path 351" d="M382.1,697.414c2.8,0,3.85-2.381,3.85-4.743,0-2.481-1.052-4.863-3.85-4.863s-3.85,2.382-3.85,4.863c0,2.362,1.051,4.743,3.85,4.743m0-12.225c4.386,0,6.966,3.274,6.966,7.482,0,4.088-2.58,7.364-6.966,7.364s-6.966-3.276-6.966-7.364c0-4.208,2.58-7.482,6.966-7.482" fill="#231f20"/>
    <path id="Path_352" data-name="Path 352" d="M391.19,685.527h3.1l5.914,9.507h.04v-9.507h2.917V699.7h-3.115l-5.9-9.487h-.039V699.7H391.19Z" fill="#231f20"/>
    <path id="Path_353" data-name="Path 353" d="M238.528,707.946h2.819l2.129,6.262h.026l2.015-6.262h2.819v9.107h-1.875V710.6h-.025l-2.232,6.454H242.66l-2.232-6.39H240.4v6.39h-1.875Z" fill="#b0a791"/>
    <path id="Path_354" data-name="Path 354" d="M252.4,713.533h2.36l-1.148-3.342h-.026Zm.191-5.587h2.054l3.405,9.107h-2.078l-.689-2.028h-3.406l-.713,2.028H249.13Z" fill="#b0a791"/>
    <path id="Path_355" data-name="Path 355" d="M259.909,709.629H257.18v-1.683h7.461v1.683h-2.729v7.423h-2Z" fill="#b0a791"/>
    <path id="Path_356" data-name="Path 356" d="M265.689,707.946H272.5v1.683h-4.808v1.951h4.413v1.557h-4.413v2.232h4.91v1.684h-6.913Z" fill="#b0a791"/>
    <path id="Path_357" data-name="Path 357" d="M275.96,712.065h2.193c.893,0,1.378-.382,1.378-1.3,0-.88-.485-1.262-1.378-1.262H275.96Zm-2-4.119h4.911a2.5,2.5,0,0,1,2.666,2.513,2.241,2.241,0,0,1-1.442,2.282v.026c.982.255,1.262,1.211,1.326,2.13a4.992,4.992,0,0,0,.383,2.156h-2a10.047,10.047,0,0,1-.318-2.182c-.141-.956-.511-1.377-1.518-1.377h-2v3.559h-2Z" fill="#b0a791"/>
    <rect id="Rectangle_698" data-name="Rectangle 698" width="2.003" height="9.107" transform="translate(283.167 707.946)" fill="#b0a791"/>
    <path id="Path_358" data-name="Path 358" d="M289.226,713.533h2.36l-1.149-3.342h-.025Zm.192-5.587h2.053l3.4,9.107H292.8l-.689-2.028H288.7l-.715,2.028h-2.027Z" fill="#b0a791"/>
    <path id="Path_359" data-name="Path 359" d="M295.67,707.946h2v7.423h4.438v1.684H295.67Z" fill="#b0a791"/>
    <path id="Path_360" data-name="Path 360" d="M304.6,714.029c0,1.212.944,1.684,2.015,1.684.7,0,1.773-.2,1.773-1.135,0-.982-1.365-1.148-2.7-1.505s-2.717-.881-2.717-2.589c0-1.862,1.76-2.755,3.406-2.755,1.9,0,3.647.829,3.647,2.933h-1.938c-.064-1.1-.842-1.377-1.8-1.377-.637,0-1.376.267-1.376,1.033,0,.7.433.79,2.716,1.378.663.165,2.7.586,2.7,2.653,0,1.67-1.314,2.92-3.788,2.92-2.016,0-3.9-.995-3.878-3.24Z" fill="#b0a791"/>
    <path id="Path_361" data-name="Path 361" d="M318.225,709.055a.8.8,0,0,0-.816.8,2.176,2.176,0,0,0,.714,1.364c.511-.331.931-.638.931-1.3a.86.86,0,0,0-.829-.867m-.638,3.979a1.8,1.8,0,0,0-1.275,1.505,1.272,1.272,0,0,0,1.3,1.2,2,2,0,0,0,1.53-.8Zm2.513,3.112a3.465,3.465,0,0,1-2.563,1.084,2.7,2.7,0,0,1-2.947-2.73,3.052,3.052,0,0,1,2.041-2.639,2.985,2.985,0,0,1-.867-1.939,2.458,2.458,0,0,1,4.872.1,2.6,2.6,0,0,1-1.62,2.271l1.174,1.441a3.255,3.255,0,0,0,.331-1.084h1.569a4.336,4.336,0,0,1-.88,2.245l1.849,2.155H320.84Z" fill="#b0a791"/>
    <path id="Path_362" data-name="Path 362" d="M333.418,711.007a1.968,1.968,0,0,0-1.99-1.6c-1.8,0-2.475,1.531-2.475,3.125,0,1.518.676,3.049,2.475,3.049a2.053,2.053,0,0,0,2.067-2.041h1.938a3.846,3.846,0,0,1-4.005,3.724,4.393,4.393,0,0,1-4.477-4.732c0-2.7,1.659-4.808,4.477-4.808a3.694,3.694,0,0,1,3.928,3.278Z" fill="#b0a791"/>
    <path id="Path_363" data-name="Path 363" d="M340.882,715.586c1.8,0,2.475-1.531,2.475-3.049,0-1.594-.676-3.125-2.475-3.125s-2.475,1.531-2.475,3.125c0,1.518.677,3.049,2.475,3.049m0-7.857c2.819,0,4.477,2.1,4.477,4.808,0,2.628-1.658,4.733-4.477,4.733s-4.477-2.105-4.477-4.733c0-2.7,1.658-4.808,4.477-4.808" fill="#b0a791"/>
    <path id="Path_364" data-name="Path 364" d="M346.726,707.946h1.99l3.8,6.109h.026v-6.109h1.874v9.107h-2l-3.788-6.1H348.6v6.1h-1.875Z" fill="#b0a791"/>
    <path id="Path_365" data-name="Path 365" d="M357.544,714.029c0,1.212.944,1.684,2.015,1.684.7,0,1.773-.2,1.773-1.135,0-.982-1.365-1.148-2.7-1.505s-2.717-.881-2.717-2.589c0-1.862,1.761-2.755,3.406-2.755,1.9,0,3.647.829,3.647,2.933h-1.938c-.063-1.1-.842-1.377-1.8-1.377-.637,0-1.376.267-1.376,1.033,0,.7.433.79,2.716,1.378.663.165,2.7.586,2.7,2.653,0,1.67-1.314,2.92-3.788,2.92-2.016,0-3.9-.995-3.878-3.24Z" fill="#b0a791"/>
    <path id="Path_366" data-name="Path 366" d="M366.474,709.629h-2.729v-1.683h7.462v1.683h-2.73v7.423h-2Z" fill="#b0a791"/>
    <path id="Path_367" data-name="Path 367" d="M374.257,712.065h2.193c.893,0,1.378-.382,1.378-1.3,0-.88-.485-1.262-1.378-1.262h-2.193Zm-2-4.119h4.911a2.5,2.5,0,0,1,2.665,2.513,2.24,2.24,0,0,1-1.441,2.282v.026c.982.255,1.262,1.211,1.326,2.13a4.992,4.992,0,0,0,.383,2.156h-2a10.047,10.047,0,0,1-.318-2.182c-.14-.956-.511-1.377-1.518-1.377h-2v3.559h-2Z" fill="#b0a791"/>
    <path id="Path_368" data-name="Path 368" d="M389.194,713.609c0,2.461-1.453,3.66-3.889,3.66s-3.878-1.186-3.878-3.66v-5.663h2v5.663c0,.995.255,1.977,1.876,1.977,1.428,0,1.887-.625,1.887-1.977v-5.663h2Z" fill="#b0a791"/>
    <path id="Path_369" data-name="Path 369" d="M396.99,711.007a1.968,1.968,0,0,0-1.99-1.6c-1.8,0-2.475,1.531-2.475,3.125,0,1.518.677,3.049,2.475,3.049a2.053,2.053,0,0,0,2.067-2.041h1.938A3.846,3.846,0,0,1,395,717.269c-2.819,0-4.477-2.1-4.477-4.732,0-2.7,1.658-4.808,4.477-4.808a3.694,3.694,0,0,1,3.928,3.278Z" fill="#b0a791"/>
    <path id="Path_370" data-name="Path 370" d="M402.387,709.629h-2.729v-1.683h7.462v1.683h-2.73v7.423h-2Z" fill="#b0a791"/>
    <rect id="Rectangle_699" data-name="Rectangle 699" width="2.003" height="9.107" transform="translate(408.167 707.946)" fill="#b0a791"/>
    <path id="Path_371" data-name="Path 371" d="M416.013,715.586c1.8,0,2.474-1.531,2.474-3.049,0-1.594-.676-3.125-2.474-3.125s-2.475,1.531-2.475,3.125c0,1.518.677,3.049,2.475,3.049m0-7.857c2.818,0,4.477,2.1,4.477,4.808,0,2.628-1.659,4.733-4.477,4.733a4.395,4.395,0,0,1-4.478-4.733c0-2.7,1.659-4.808,4.478-4.808" fill="#b0a791"/>
    <path id="Path_372" data-name="Path 372" d="M421.856,707.946h1.99l3.8,6.109h.026v-6.109h1.874v9.107h-2l-3.788-6.1h-.025v6.1h-1.875Z" fill="#b0a791"/>
    <path id="Path_373" data-name="Path 373" d="M189.2,665.28l-.036,51.382-34.531,25.746Z" fill="#231f20"/>
    <path id="Path_374" data-name="Path 374" d="M191.939,665.28l-.036,51.391,34.515,25.769Z" fill="#231f20"/>
    <path id="Path_375" data-name="Path 375" d="M156.132,744.6l68.638.036L190.539,719Z" fill="#b0a791"/>
  </g>
</svg>
